# xmcd CD database file
#
# Track frame offsets:
#	150
#	25237
#	48794
#	73733
#	90100
#	119688
#	141786
#	165759
#	186987
#	219277
#
# Disc length: 3243 seconds
#
# Revision: 0
# Processed by: cddbd v1.5.2PL0 Copyright (c) Steve Scherf et al.
# Submitted via: CDex 1.51
#
DISCID=7e0ca90a
DTITLE=Young-Joo Song - Free To Fly
DYEAR=2007
DGENRE=Jazz
TTITLE0=In Your Own Sweet Way
TTITLE1=Free To Fly
TTITLE2=Secret Love
TTITLE3=Blue In Green
TTITLE4=April 2007
TTITLE5=Au Privave
TTITLE6=Sacrifice
TTITLE7=All Of You
TTITLE8=I'll Close My Eyes
TTITLE9=Everytime We Say Goodby
EXTD=YEAR: 2007
EXTT0=
EXTT1=
EXTT2=
EXTT3=
EXTT4=
EXTT5=
EXTT6=
EXTT7=
EXTT8=
EXTT9=
PLAYORDER=
